<?xml version="1.0" standalone="no"?>
<!DOCTYPE svg PUBLIC "-//W3C//DTD SVG 20010904//EN"
 "http://www.w3.org/TR/2001/REC-SVG-20010904/DTD/svg10.dtd">
<svg version="1.0" xmlns="http://www.w3.org/2000/svg"
 width="512.000000pt" height="512.000000pt" viewBox="0 0 512.000000 512.000000"
 preserveAspectRatio="xMidYMid meet">

<g transform="translate(0.000000,512.000000) scale(0.100000,-0.100000)"
fill="#000000" stroke="none">
<path d="M2240 4950 c0 -128 -3 -171 -12 -174 -7 -2 -65 -13 -128 -26 -63 -12
-167 -39 -230 -60 -63 -21 -121 -39 -129 -41 -9 -3 -43 46 -96 136 -52 89 -88
140 -97 139 -17 -2 -504 -278 -527 -300 -12 -11 -2 -34 67 -155 45 -78 82
-144 82 -148 0 -3 -25 -26 -55 -50 -62 -50 -264 -255 -290 -295 -10 -14 -21
-26 -25 -26 -4 0 -71 37 -149 82 -121 69 -144 79 -155 67 -22 -24 -298 -509
-300 -526 -1 -11 46 -43 139 -98 90 -53 139 -87 136 -96 -2 -8 -20 -66 -41
-129 -21 -63 -48 -167 -60 -230 -13 -63 -24 -121 -26 -127 -3 -10 -46 -13
-174 -13 l-170 0 0 -320 0 -320 170 0 c128 0 171 -3 174 -12 2 -7 13 -65 26
-128 12 -63 39 -167 60 -230 21 -63 39 -121 41 -129 3 -9 -46 -43 -136 -96
-89 -52 -140 -88 -139 -97 2 -17 278 -504 300 -527 11 -12 34 -2 155 67 78 45
145 82 149 82 4 0 15 -12 25 -26 26 -40 228 -245 290 -295 30 -24 55 -47 55
-50 0 -4 -37 -70 -82 -148 -69 -121 -79 -144 -67 -155 23 -22 510 -298 527
-300 9 -1 45 50 97 139 53 90 87 139 96 136 8 -2 66 -20 129 -41 64 -21 167
-48 230 -60 63 -12 121 -24 128 -26 9 -2 12 -46 12 -174 l0 -170 320 0 320 0
0 170 c0 128 3 172 13 174 6 2 62 13 123 25 62 11 165 38 230 60 66 21 125 40
133 42 9 3 43 -46 96 -136 56 -96 87 -140 98 -139 18 2 502 278 526 300 12 11
2 34 -67 155 -45 78 -82 144 -82 148 0 3 25 26 55 50 62 50 264 255 290 295
10 14 21 26 25 26 4 0 71 -37 149 -82 121 -69 144 -79 155 -67 22 24 299 510
300 527 1 11 -46 44 -139 98 -90 52 -139 86 -136 95 2 8 20 66 41 129 21 64
48 167 60 230 12 63 24 121 26 128 2 9 46 12 174 12 l170 0 0 320 0 320 -170
0 c-128 0 -172 3 -174 13 -2 6 -14 64 -26 127 -12 63 -39 166 -60 230 -21 63
-39 121 -41 129 -3 9 46 43 136 95 93 54 140 87 139 98 -1 17 -278 503 -300
527 -11 12 -34 2 -155 -67 -78 -45 -145 -82 -149 -82 -4 0 -15 12 -25 26 -26
40 -228 245 -290 295 -30 24 -55 47 -55 50 0 4 37 70 82 148 69 121 79 144 67
155 -24 22 -508 298 -526 300 -11 1 -42 -43 -98 -139 -53 -90 -87 -139 -96
-136 -8 2 -67 21 -131 42 -65 21 -168 48 -230 60 -62 12 -119 23 -125 25 -10
3 -13 46 -13 174 l0 170 -320 0 -320 0 0 -170z m618 -909 c52 -11 133 -32 180
-48 91 -29 323 -141 329 -158 2 -6 -142 -155 -320 -333 l-322 -322 -54 10
c-30 5 -80 10 -111 10 -31 0 -81 -5 -111 -10 l-54 -10 -322 322 c-178 178
-323 325 -323 329 0 11 156 94 244 129 109 44 223 75 343 95 124 20 397 13
521 -14z m-1240 -994 l322 -322 -10 -54 c-13 -68 -13 -154 0 -222 l10 -54
-322 -322 c-178 -178 -327 -322 -333 -320 -17 6 -129 238 -158 329 -58 180
-71 266 -71 478 0 211 14 308 70 476 42 126 143 334 162 334 4 0 152 -145 330
-323z m2287 197 c66 -131 105 -241 138 -391 17 -80 21 -132 21 -288 1 -218
-11 -298 -75 -490 -37 -112 -135 -315 -155 -322 -5 -2 -154 142 -332 320
l-322 322 10 54 c5 30 10 80 10 111 0 31 -5 81 -10 111 l-10 54 322 322 c178
178 327 322 333 320 5 -2 37 -57 70 -123z m-1195 -684 l0 -150 -150 0 -150 0
0 150 0 150 150 0 150 0 0 -150z m-190 -636 c48 -4 111 -1 145 5 l60 11 322
-322 c178 -178 322 -327 320 -332 -7 -21 -208 -117 -322 -155 -192 -64 -272
-76 -490 -75 -205 0 -302 15 -471 70 -78 25 -281 120 -319 149 -19 15 -4 31
305 341 261 260 329 324 345 319 11 -3 58 -8 105 -11z"/>
</g>
</svg>
